<?xml version="1.0" encoding="UTF-8"?><svg id="Camada_1" xmlns="http://www.w3.org/2000/svg" width="1622.62" height="2224.13" viewBox="0 0 1622.62 2224.13"><defs><style>.cls-1,.cls-2{fill:#d41217;}.cls-3{fill:#fff;}.cls-4{fill:#fecc00;stroke:#fff;stroke-width:15px;}.cls-2,.cls-5{fill-rule:evenodd;}</style></defs><path class="cls-3" d="M1586.57,1515.85c-11.21,12.55-59.62,57.17-121.53,63.29-52.42,5.18-87.22-10.39-105.27-19.63,31.34-23.54,63.96-45.3,102.98-69.1,53.52-32.65,113.27-63.64,159.88-84.36-130.37-87.13-229.13-157.55-209.87-289.85,11.63-79.91,76.91-124.6,162.13-153.4,0-190.57-2.08-404.46-2.08-595.03-147.91,54.31-352.77,148.81-761.5,148.81-408.72,0-613.58-94.51-761.5-148.81,0,190.57-2.15,404.58-2.15,595.15,85.22,28.8,150.57,73.37,162.2,153.29,19.26,132.31-79.5,202.72-209.87,289.85,46.61,20.73,106.36,51.72,159.88,84.36,39.02,23.8,71.64,45.57,102.98,69.1-18.06,9.24-52.85,24.81-105.27,19.63-61.91-6.11-110.31-50.74-121.53-63.29,29.17,137.56,61.88,165.58,95.83,194.92-41.79,38.1-86.18,66.79-106.38,76.57,139.92,97.65,293.1,32.67,322.02,24.83,28.69,51.28,53.94,83,76.05,109.08,58.82,69.42,125.56,81.74,166.19,76.61,25.85-3.26,33.75-5.07,72.05-14.47,21.3,33.69,40.54,61.93,61.83,95.62,29.38,46.47,58.28,98.63,87.66,145.11,0,0,0,0,0,.01,0,0,0,0,0,0,0,0,0,0,0,0,0,0,0,0,0-.01,29.37-46.47,58.28-98.63,87.66-145.11,21.3-33.69,40.54-61.93,61.83-95.62,38.29,9.4,46.2,11.21,72.05,14.47,40.64,5.13,107.37-7.19,166.19-76.61,22.1-26.09,47.36-57.8,76.05-109.08,28.92,7.84,182.09,72.82,322.02-24.83-20.2-9.77-64.59-38.47-106.38-76.57,33.95-29.34,66.66-57.37,95.83-194.92Z"/><path d="M239.32,1621.62c33.12-8.41,66.91-21.73,101.4-37.86l-13.1-11.22c-31.73,14.72-61.39,27.35-91.05,33.66-51.74,12.63-99.33,14.03-146.24-12.63,2.76,9.12,4.83,16.84,7.59,21.74,48.98,20.33,88.29,18.93,141.41,6.31Z"/><path class="cls-2" d="M354.53,1596.37c-40.7,18.93-94.5,37.87-152.44,46.98-55.87,9.11-94.5-9.82-94.5-9.82,0,0,22.76,44.17,77.26,72.91-19.99,25.24-42.07,44.88-68.28,63.82,9.66,3.5,32.42,12.61,72.43,12.61,53.8,0,117.26-12.61,181.41-42.77,0,0,6.9-26.64,71.74-61.7-26.9-28.76-57.26-56.09-87.6-82.04h0ZM354.53,1596.37"/><path class="cls-5" d="M455.22,1691.73c-31.72,14.72-70.35,37.86-67.6,63.79,2.07,19.64,24.15,23.85,52.42,23.85s60.71-6.32,84.17-11.22c-22.76-25.96-44.83-51.89-68.99-76.42h0ZM1299.55,1573.93c30.34,14.02,60.69,25.95,90.36,32.25,51.73,12.63,98.65,14.02,145.55-11.92-2.76,8.42-4.82,14.73-7.59,19.63-48.28,21.04-88.3,20.33-140.72,7.71-33.11-8.41-66.47-21.12-100.27-37.25l12.67-10.42ZM1299.55,1573.93"/><path class="cls-2" d="M1272.27,1596.76c40.69,18.22,94.5,37.87,151.75,46.27,55.86,9.11,93.81-9.82,93.81-9.82,0,0-22.76,45.57-77.95,72.21,19.99,25.24,42.76,45.57,68.29,64.51-8.28,3.51-31.06,12.61-71.05,12.61-54.5,0-117.26-12.61-180.73-42.77,0,0-7.59-26.64-72.42-60.99,28.27-28.61,57.72-55.97,88.29-82.02h0ZM1269.77,1593.88"/><path class="cls-5" d="M1172.62,1691.73c31.04,14.72,68.98,37.15,66.23,62.39-2.76,20.33-24.15,24.54-53.12,24.54-26.89,0-58.63-5.62-82.08-10.52,22.76-26.64,44.84-51.88,68.97-76.41h0ZM1172.62,1691.73"/><path class="cls-1" d="M802.26,2161.85c-62.49-119.57-169.93-268.31-310.69-430.14-147.06-169.07-305.57-267.31-412.65-319.96l-19.45-9.56,18.43-11.41c116.48-72.08,176.04-163.85,167.71-258.4-7.49-85.06-63.72-151.64-158.31-187.49l-7.75-2.94v-8.28c0-83.19.12-168.8.23-251.6v-1.79c.11-82.63.23-168.07.23-251.08v-17.31l16.21,6.07c74.64,27.95,188.6,66.62,307.63,92.14,159.41,34.17,290.81,39.9,409.05,41.01,118.24-1.1,249.64-6.83,409.04-41.01,119.03-25.52,232.99-64.19,307.63-92.14l16.21-6.07v17.31c0,83.98.12,169.51.23,252.21.11,82.96.23,168.75.23,252.25v8.28l-7.75,2.94c-94.59,35.85-150.82,102.43-158.31,187.49-8.33,94.55,51.23,186.32,167.71,258.4l18.44,11.41-19.46,9.56c-107.08,52.64-265.59,150.89-412.65,319.96-140.77,161.84-248.2,310.58-310.69,430.14l-10.63,20.35-10.63-20.35Z"/><path class="cls-3" d="M1539.78,420.55v8.65c0,83.39.12,169.22.23,252.22.11,83.01.23,168.84.23,252.24v4.14l-3.87,1.47c-96.86,36.71-154.45,105.1-162.16,192.57-8.54,96.92,52.02,190.69,170.53,264.03l9.22,5.7-9.73,4.78c-107.58,52.89-266.81,151.58-414.53,321.41-141.07,162.18-248.78,311.33-311.48,431.3l-5.32,10.17-5.32-10.17c-62.7-119.97-170.41-269.12-311.48-431.3-147.71-169.83-306.95-268.52-414.53-321.41l-9.73-4.78,9.22-5.7c118.51-73.34,179.07-167.1,170.53-264.03-7.71-87.47-65.3-155.86-162.16-192.57l-3.87-1.47v-4.14c0-83.4.12-169.23.23-252.24.11-83,.23-168.83.23-252.22v-8.65l8.1,3.03c74.83,28.02,189.09,66.8,308.48,92.39,159.94,34.29,291.73,40.04,410.3,41.14,118.58-1.1,250.36-6.85,410.3-41.14,119.39-25.59,233.65-64.37,308.48-92.39l8.1-3.03M74.01,403.24v25.96c0,82.85-.12,168.15-.23,250.63v1.58s0,.55,0,.55c-.11,82.83-.23,168.48-.23,251.7v12.43l7.75,2.94,3.87,1.47c92.32,34.99,147.18,99.77,154.46,182.4,8.12,92.17-50.44,181.94-164.89,252.77l-9.22,5.7-18.43,11.41,19.45,9.56,9.73,4.78c106.58,52.4,264.37,150.2,410.77,318.51,140.46,161.49,247.62,309.83,309.9,428.98l5.32,10.17,10.64,20.35,10.63-20.35,5.32-10.17c62.28-119.16,169.44-267.5,309.9-428.98,146.4-168.32,304.18-266.11,410.77-318.51l9.73-4.78,19.46-9.56-18.44-11.41-9.22-5.7c-114.45-70.83-173.01-160.6-164.89-252.77,7.28-82.64,62.14-147.42,154.46-182.4l3.87-1.47,7.75-2.94v-12.43c0-83.38-.12-169.18-.23-252.16v-.09c-.11-82.76-.23-168.33-.23-252.2v-25.96l-16.21,6.07-8.1,3.03c-74.46,27.88-188.12,66.46-306.79,91.89-158.87,34.06-289.88,39.77-407.79,40.87-117.91-1.1-248.92-6.82-407.79-40.87-118.67-25.44-232.33-64.01-306.79-91.89l-8.1-3.03-16.21-6.07h0Z"/><path class="cls-3" d="M540.26,1689.87c114.13,131.21,207.12,254.55,273.04,361.77,65.92-107.22,158.91-230.56,273.04-361.77,122.63-140.99,253.02-235.04,357.78-295.4-91.12-77.25-135.87-170.16-127.29-267.54,8.81-99.97,67.27-179.6,165.81-227.3-.03-72.49-.13-146.28-.22-217.95-.08-58.68-.16-118.78-.2-178.44-70.09,24.01-156.75,50.39-246.45,69.62-165.02,35.37-300.33,41.3-421.98,42.43h-.48s-.48,0-.48,0c-121.64-1.13-256.96-7.05-421.98-42.43-89.7-19.23-176.37-45.61-246.45-69.62-.04,59.66-.12,119.75-.2,178.44-.1,71.68-.2,145.46-.22,217.95,98.54,47.69,157,127.33,165.81,227.3,8.58,97.38-36.17,190.29-127.29,267.54,104.76,60.36,235.15,154.41,357.78,295.4Z"/><path d="M569.28,1664.11c97.51,112.11,179.92,218.77,243.61,314.97,63.69-96.2,146.1-202.86,243.61-314.97,109.05-125.37,224.12-214.66,322.95-276.65-74.67-78.04-110.28-168.79-101.88-264.12,9.25-104.96,68.63-192.51,165.64-247.35-.04-64.87-.13-130.49-.21-194.43-.06-41.03-.11-82.74-.16-124.52-60.34,19.28-128.88,38.68-199.32,53.78-168.41,36.1-306.09,42.14-429.79,43.29h-.85s-.85,0-.85,0c-123.7-1.15-261.38-7.19-429.79-43.29-70.45-15.1-138.98-34.5-199.32-53.78-.04,41.77-.1,83.49-.16,124.52-.09,63.94-.18,129.56-.21,194.43,97.01,54.84,156.4,142.39,165.64,247.35,8.4,95.33-27.21,186.08-101.88,264.12,98.83,62,213.9,151.28,322.95,276.66ZM1285.6,1295.39c14.46,30.27,33.53,59.42,57.05,87.15-94.84,62.15-202.16,148.43-304.26,265.81-88.26,101.47-164.31,198.63-225.51,287.81-18.57-27.06-38.51-54.85-59.73-83.27l532.44-557.5ZM206.57,862.18c.04-60.35.12-121.19.2-180.59.04-30.35.08-61.07.12-91.92,52.96,16.16,110.95,31.89,170.33,44.62,170.51,36.55,309.64,42.66,434.6,43.82h1.07s1.07,0,1.07,0c124.96-1.16,264.09-7.27,434.6-43.82,59.38-12.73,117.37-28.46,170.33-44.62.04,30.85.08,61.57.12,91.92.08,59.39.16,120.22.2,180.56-200.61,59-404.54,88.76-606.3,88.4-257.37-.44-471.73-48.28-606.34-88.38ZM372.12,1121.23c-.54-6.07-1.23-12.09-2.08-18.05l143.22-149.96c40.99,5.77,82.16,10.38,123.38,13.82l-283.05,296.37c16.47-45.53,22.84-93.23,18.53-142.17ZM334.97,995.1c-18.45-34.5-43.23-65.64-73.72-92.64,43.64,11.54,88.05,21.78,132.93,30.64l-59.22,62ZM617.53,1309.26c0-13.2,1.32-26.09,3.81-38.55l-202.74,212.28c-26.48-22.09-52.66-42.37-78.25-60.94l427.9-448.04c14.89.34,29.77.52,44.62.55,1.16,0,2.32,0,3.47,0,29.86,0,59.77-.67,89.71-1.97l-140.47,147.09c15.15-3.77,30.99-5.78,47.31-5.78,28.55,0,55.67,6.13,80.12,17.14l162.66-170.31c52.62-6.06,105.24-14.09,157.76-24.1l-244.11,255.6c22.09,29.48,36.03,65.41,38.51,104.46l277.19-290.24c-17.08,35.25-27.75,73.77-31.37,114.79-1.86,21.08-1.73,41.93.33,62.47l-562.69,589.17c-20.4-25.56-41.72-51.53-63.92-77.84l181.9-190.46c-39.3-.71-75.77-13.02-106.13-33.67l-141.73,148.4c-22.62-24.67-45.42-47.87-68.21-69.66l145.33-152.17c-13.44-26.5-21.02-56.47-21.02-88.22Z"/><path class="cls-1" d="M249.57,643.53c18.49,4.69,37.02,9.2,55.6,13.53,42.48,9.8,81.62,28.45,81.95,77.26.29,42.73-39.47,50.38-74.09,42.34-8.62-1.95-12.93-2.95-21.53-4.98v82.46c-14-3.35-27.98-6.8-41.93-10.34v-200.26ZM302.09,746.75c20.69,5,43.01,2.46,42.79-23.4-.19-22.83-18.49-34.71-39.03-39.29-4.42-.98-9.23-1.86-14.35-2.52v62.46c3.76,1.16,7.55,2.02,10.59,2.75Z"/><path class="cls-1" d="M435.34,683c17.82,2.96,35.66,5.76,53.53,8.39,15.07,68.79,30.19,137.58,45.36,206.35-13.86-1.75-27.71-3.6-41.55-5.54-2.42-14.78-4.84-29.56-7.26-44.33-15.68-2.28-31.34-4.76-46.97-7.37-2.76,13.96-5.52,27.92-8.28,41.88-13.57-2.33-27.11-4.78-40.63-7.35,15.28-64.01,30.55-128.02,45.81-192.03ZM479.19,815.72c-5.88-31.95-11.75-63.89-17.62-95.84-5.52,30.16-11.05,60.32-16.57,90.48,11.39,1.84,22.78,3.63,34.19,5.36Z"/><path class="cls-1" d="M623.79,911.16c-43.03-3.64-66.53-30.08-66.33-73.11,0-45.93,0-91.87,0-137.8,14.46,1.6,28.92,3.1,43.4,4.5,0,47.94,0,95.88,0,143.83-.82,15.52,6.21,29.76,22.59,31.6,17.78,1.99,24.15-14.58,23.65-29.64,0-47.3,0-94.61,0-141.91,14.5,1.03,28.99,1.95,43.5,2.77,0,45.93,0,91.87,0,137.8.27,42.83-24.2,65.57-66.8,61.97Z"/><path class="cls-1" d="M733.78,713.31c14.17.46,28.34.82,42.51,1.09v168.76c26.27.35,52.51.32,78.77-.1v31.5c-40.45.64-80.85.31-121.29-.99,0-66.75,0-133.51,0-200.26Z"/><path class="cls-1" d="M882.25,713.63c14.17-.47,28.33-1.04,42.5-1.7v200.26c-14.16.66-28.33,1.23-42.5,1.7,0-66.75,0-133.51,0-200.26Z"/><path class="cls-1" d="M998.18,850.38c2.32,14.59,11.83,29.79,28.5,27.89,12.54-1.43,24.7-9.32,24.66-22.47-.09-23.7-38.48-39.48-55.94-50.39-16.2-11.91-31.29-28.56-31.31-49.74-.02-32.36,34.89-51.58,63.28-54.16,28.54-2.59,57.38,9.03,61.42,40.71-12.81,3.12-25.64,6.14-38.5,9.05-1.39-12.86-11.07-22.98-24.31-21.95-11.87.92-22.56,9.85-22.24,21.99.43,16.38,17.75,25.87,30.23,33.95,23.41,14.6,58.59,32.06,57.94,64.24-.68,33.59-34.52,55.96-65.24,58.64-33.31,2.91-64.24-14.67-68.15-50.19,13.24-2.41,26.46-4.93,39.66-7.56Z"/><path class="cls-1" d="M1150.06,719.87c-13.94,2.06-27.89,4.03-41.86,5.9v-30.41c42.18-5.67,84.16-12.4,126-20.19v30.41c-13.88,2.59-27.76,5.09-41.67,7.49,0,56.62,0,113.24,0,169.85-14.14,2.37-28.29,4.63-42.46,6.8,0-56.62,0-113.24,0-169.85Z"/><path class="cls-1" d="M1278.5,666.32c17.72-3.77,35.4-7.71,53.05-11.81,14.88,63.09,29.77,126.19,44.66,189.28-13.61,3.46-27.25,6.82-40.91,10.1-2.39-13.87-4.78-27.73-7.17-41.6-15.48,3.63-31,7.06-46.55,10.36-2.74,15-5.49,30.01-8.23,45.01-13.49,2.8-27,5.48-40.54,8.03,15.28-69.78,30.51-139.57,45.68-209.37ZM1321.99,782.49c-5.82-29.73-11.63-59.46-17.44-89.19-5.47,32.25-10.95,64.49-16.44,96.74,11.31-2.46,22.6-4.97,33.88-7.54Z"/><polygon class="cls-3" points="640.03 1922.02 659.29 1949.53 726.71 1939.83 796.87 1938.45 847.32 1938.45 903.73 1943.96 963.27 1951.48 976.64 1925.61 883.55 1908.64 806.5 1908.64 740.92 1908.64 681.31 1916.66 640.03 1922.02"/><path class="cls-3" d="M543.95,1788.03l16.29,30.94,67.41-13.71,88.51-12.64,66.5-4.59h78.42l53.92,9.48,149.72,16.81,17.84-26.45-173.32-28.27s-66.5-4.13-69.25-4.13-58.24-1.83-59.62-1.83-60.54,2.29-60.54,2.29l-57.78,9.63-48.15,11.01-69.94,11.46Z"/><path class="cls-1" d="M1096.05,1817.33c-8.14-.96-19.51-3.22-25.56-4.7-3.77-.93-65.32-13.28-75.1-15.08-59.86-11.02-121.02-17.63-182.14-18.42h0s-.01,0-.02,0-.01,0-.02,0h0c-61.12.79-122.28,7.4-182.14,18.42-9.78,1.8-71.33,14.15-75.1,15.08-6.05,1.49-17.41,3.74-25.56,4.7-49.12,7.26-107.97,19.76-147.06-4.7,15.71,23.61,32.99,50.51,51.51,72.1,13.07,15.23,41.02,47.96,57.79,56.29,26.57,13.19,61.69,8.12,89.82,4.16,19.47-2.74,38.74-6.64,58-10.61,19.66-3.47,38.32-7.47,53.01-10.18,35.12-5.8,84.1-10.53,119.74-10.72,35.64.19,84.62,4.92,119.74,10.72,14.68,2.71,33.34,6.71,53.01,10.18,19.27,3.96,38.53,7.87,58,10.61,28.13,3.96,63.25,9.03,89.82-4.16,16.77-8.33,44.72-41.06,57.79-56.29,18.53-21.59,35.81-48.49,51.51-72.1-39.09,24.46-97.94,11.95-147.06,4.7Z"/><path class="cls-2" d="M812.9,1136.73c-94.97,0-171.67,78.1-171.67,171.66s76.69,172.38,171.67,172.38,171.66-78.1,171.66-172.38-77.39-171.66-171.66-171.66ZM812.9,1162.06c29.57,0,56.98,8.44,80.22,23.92-52.78,23.92-105.55,26.03-159.72-.7,23.75-15.15,51.33-23.2,79.5-23.21ZM812.9,1455.44c-29.57,0-58.39-9.86-81.62-25.34,53.47-24.62,106.95-26.02,161.83.71-23.23,15.48-50.65,24.63-80.22,24.63ZM912.09,1416.04c-5.62-3.52-11.24-5.64-16.88-8.45,7.74-15.47,14.06-30.95,16.88-46.42h-21.81c-3.68,13.11-8.63,25.83-14.77,37.98-42.21-14.06-84.43-11.25-126.64,2.12-6.15-12.88-11.1-26.31-14.77-40.1h-20.4c4.21,16.17,9.14,31.65,16.17,47.13-4.92,2.81-10.54,4.92-16.17,7.04-28.84-26.73-47.14-65.43-47.14-106.94s19-80.91,47.85-108.35c4.92,2.81,10.56,5.63,15.48,7.03-7.73,15.48-13.37,30.95-16.18,46.43h21.81c3.51-12.66,8.44-25.33,14.07-38.01,42.92,14.77,85.13,11.97,127.35-2.11,4.92,13.38,10.55,26.74,13.35,40.11h20.41c-4.21-15.48-9.84-30.96-15.48-47.13,4.92-2.11,10.54-4.21,16.18-6.33,29.55,26.74,47.84,66.13,47.84,108.35s-18.3,80.91-47.15,107.64Z"/><path d="M1523.38,1780.06c-73.8,36.46-189.68,9.12-257.99-20.33,0,0-8.26-2.8-8.26-3.51-11.04,28.75-40.71,37.86-68.29,37.86-40.02,0-77.95-7-113.81-15.42-45.53-9.11-153.84-32.94-262.14-32.94s-216.59,23.84-262.11,32.94c-35.87,8.42-74.5,15.42-114.5,15.42-27.6,0-56.56-9.12-67.6-37.86-1.38.71-8.28,3.51-8.28,3.51-68.97,29.44-184.87,56.8-257.98,20.33-4.14,2.1-5.52,4.21-11.73,7.01,75.18,49.07,197.27,18.92,273.85-11.92,14.48,24.53,47.6,32.25,73.81,32.25,41.39,0,80.7-7.02,117.96-14.74,0,0,162.1-32.95,256.6-32.95s256.61,32.95,256.61,32.95c35.87,7.71,75.88,14.74,117.96,14.74,25.52,0,59.32-7.73,73.12-32.25,76.55,30.85,199.34,61,274.52,11.92-6.2-2.8-8.28-4.91-11.72-7.01Z"/><path class="cls-5" d="M813.58,1930.8c-140.03,0-214.53,31.56-254.53,31.56-26.9,0-35.87-3.51-35.87-3.51,0,0,17.25,13.32,54.5,13.32s122.09-28.05,235.91-28.05,197.27,28.05,235.91,28.05,54.51-13.32,54.51-13.32c0,0-8.97,3.51-35.88,3.51-40.02,0-114.51-31.56-254.54-31.56h0ZM813.58,1930.8"/><path class="cls-3" d="M644.41,1882.38v.95c0,3.12.08,6.43-.96,9.45-2.18,6.3-9.34,8.16-15.3,7.65-2.29-.2-4.54-1-5.65-3.17-1.4-2.72-1.7-6-1.7-9.01v-.89l-21.48,4.52c.45,9.68,3.2,16.45,8.26,20.28,4.86,4.22,13.21,5.63,25.01,3.53,11.81-1.41,20.14-6.34,25.71-12.67,5.55-5.62,8.33-14.07,8.33-25.32l-22.23,4.68Z"/><path class="cls-3" d="M620.81,1818.62l-21.55,2.81v67.52c0,1.01.03,2.29.07,3.24l21.48-4.53v-69.04Z"/><path class="cls-3" d="M563.11,1899.51c0-.33,0-.66,0-.99v-69.34s-21.53,2.8-21.53,2.8v71.04c0,1.95-.13,3.9-.51,5.82s-1.06,3.94-2.34,5.49c-.55.66-1.21,1.23-1.97,1.62-.97.5-2.07.69-3.12.94-1.78.43-3.57.82-5.37,1.18-.86.17-1.73.33-2.6.45-.48.06-.96.1-1.44.11,0,.08,0,14.62,0,14.62h.7c.55,0,1.1-.01,1.65-.03,3.07-.11,6.14-.54,9.15-1.14,3.01-.6,5.98-1.4,8.9-2.31,4.79-1.5,9.38-3.73,12.87-7.42,1.77-1.87,3.24-4.06,4.1-6.5.91-2.55,1.14-5.28,1.29-7.97s.22-5.57.22-8.36Z"/><polygon class="cls-3" points="644.41 1882.89 666.64 1878.2 666.64 1810.87 644.41 1813.7 644.41 1882.89"/><path class="cls-3" d="M1064.71,1810.87v13.36l21.54,2.83v-11.96c-6.96-1.41-14.61-2.11-21.54-4.22Z"/><polygon class="cls-3" points="1013.22 1821.28 999.41 1818.62 999.41 1834.12 1008.34 1880.76 999.41 1879.52 999.41 1894.59 1011.93 1896.69 1014.7 1918.5 1036.22 1922.02 1013.22 1821.28"/><path class="cls-3" d="M963.27,1909.35l20.16,3.52,4.86-20.4,11.12,2.12c0-5.16,0-9.92,0-15.08-2.66-.35-5.54-.67-8.34-1.1l8.34-44.31c0-4.06,0-15.49,0-15.49l-13.2-2.81-22.94,93.54Z"/><polygon class="cls-3" points="1064.71 1927.63 1086.25 1930.44 1086.25 1832.68 1064.71 1830.58 1064.71 1927.63"/><polygon class="cls-3" points="913.96 1903.02 935.5 1905.84 935.5 1808.07 913.96 1805.25 913.96 1903.02"/><path class="cls-3" d="M752.79,1849.57c0,5.62.04,8.3.04,8.3,0-.37-.61-1.08-.78-1.38-6.01-10.59-11.05-21.69-16.48-32.58-3.7-7.42-7.43-14.83-11.23-22.2l-20.18,2.14v97.76l18.76-1.4v-51.35c0-7.03.06-13.91.06-13.91,0,0,1.59,3.51,4.09,8.28,9.04,18.28,18.07,35.88,27.1,54.17l18.05-2.12v-97.77l-19.45,1.14v50.92Z"/><path class="cls-3" d="M868.05,1808.83c-1.24-1.24-2.58-2.39-4.01-3.4-6.26-4.43-14.04-6.03-21.55-6.76-11.09-1.07-22.21-.85-33.34-1.15-.03,0-.06,0-.1,0,0,0,0,97.08,0,97.08,9.77.52,19.55,1.24,29.33,1.57,8.2.27,17.19-.11,24.47-4.32,5.19-2.99,8.96-7.75,12-12.81,5.03-8.38,5.6-19.33,5.86-28.89s-.62-19.14-4.13-27.97c-1.93-4.86-4.79-9.56-8.55-13.34ZM857.7,1853.47c-.43,7.12-.19,15.68-4.22,22.01-3.51,5.51-10.01,6.68-16.1,6.12-.62-.06-7.48-.52-7.48-.37,0-.01,0-68.91,0-68.93,0-.15,8.3-.07,9.1-.04,3.3.16,6.72.67,9.61,2.36,5.37,3.12,7.4,9.67,8.29,15.44,1.19,7.64,1.27,15.56.79,23.4Z"/><polygon class="cls-4" points="812.89 24.27 860.78 171.65 1015.75 171.65 890.38 262.74 938.26 410.12 812.89 319.04 687.52 410.12 735.41 262.74 610.04 171.65 765 171.65 812.89 24.27"/><path d="M734.07,1351.87v-88.89h-10.95c-2.21,1.84-4.43,3.09-6.58,4.31-1.07.61-2.18,1.24-3.27,1.93-2.28,1.46-4.57,2.27-6.79,3.06-.93.33-1.89.67-2.84,1.06v7.24h15.29v71.3h15.14Z"/><path d="M848.98,1268.35c-5.4-5.02-12.3-6.07-17.15-6.07-5.46,0-9.85,1.01-13.41,3.09-4.68,2.73-7.95,8.07-9.97,16.33-2.26,9.2-2.51,18.8-2.45,27.8.04,6.48.33,15,2.13,23.31.63,2.91,1.57,6.69,3.24,10.13,4.67,9.63,14.82,11.06,20.46,11.06,6.09,0,12.09-2.03,16.47-5.56,4.76-3.84,6.59-9.77,7.85-15.6,1.94-8.97,2.19-18.3,2.19-25.41,0-8.14-.45-14.7-1.43-20.63-1.11-6.78-2.85-13.71-7.94-18.45ZM841.19,1328.45c-.6,4.07-2,13.6-9.36,13.6h0c-4.88,0-8.19-3.82-9.32-10.76-1.37-8.38-1.45-16.67-1.43-25.86,0-1.45-.02-2.92-.04-4.4-.09-6.78-.18-13.78,1.99-20.25,1.62-4.82,4.58-7.26,8.8-7.26,4.84,0,7.87,4.28,9.01,12.73.97,7.2,1.05,14.71,1.05,21.19,0,1.37.01,2.74.03,4.11.05,5.55.11,11.3-.72,16.91Z"/><path d="M790.68,1343.03c3.89-6.9,5.87-18.89,5.87-35.62s-1.98-28.69-5.88-35.62c-4.09-6.51-11.37-10.24-19.97-10.24h-.67c-7.94,0-13.89,2.4-18.73,7.54-4.77,5.81-7.11,13.51-7.11,23.51,0,7.63,3.18,13.97,5.86,17.95.74,1.11,1.97,2.21,3.66,3.27,2.16,1.37,4.73,2.24,7.64,2.59,3.35.4,6.19.46,8.66,0,6.47-1.2,10.07-4.77,10.07-4.77,0,.48,0,1.73,0,2.64v.89c0,1.37,0,2.74,0,4.12-.02,3.31-.1,5.86-.25,8.25-.28,4.3-.63,9.65-4.19,12.76-1.59,1.39-3.58,2-5.74,1.77-2.57-.27-5.07-1.73-6.68-3.89-.38-.51-.72-1.07-1.01-1.65-.69-1.38-1.1-2.92-1.31-4.84-.16-1.52-.25-2.46-.27-3.07h-14.44c0,7.65,2,13.81,5.78,17.82,4.38,4.65,10.12,6.82,18.07,6.82.22,0,.43,0,.61.02h0c9.35-.7,16.27-4.25,20.04-10.25ZM780.09,1291.72l-.03,7.98c0,.2,0,.48-.12.77-.13.32-.36.54-.5.67-2.31,2.15-4.84,3.54-7.34,4-.54.1-1.08.15-1.62.15-2.37,0-4.68-.94-6.3-2.62-.82-.86-1.49-1.87-2.01-3.03-1.26-2.82-1.47-6.02-1.5-9.07-.03-3.07.07-6.68,1.03-10.14.87-3.11,2.36-5.37,4.32-6.55,1.36-.82,3.09-1.2,4.99-1.07,1.88.12,3.53.7,4.79,1.67,1.91,1.47,3.17,4.01,3.76,7.56.53,3.22.52,6.51.51,9.69Z"/><path d="M913.3,1343.4c3.89-6.9,5.87-18.89,5.87-35.62s-1.98-28.69-5.88-35.62c-4.09-6.51-11.37-10.24-19.97-10.24h-.67c-7.94,0-13.89,2.4-18.73,7.54-4.77,5.81-7.11,13.51-7.11,23.51,0,7.63,3.18,13.97,5.86,17.95.74,1.11,1.97,2.21,3.66,3.27,2.16,1.37,4.73,2.24,7.64,2.59,3.35.4,6.19.46,8.66,0,6.47-1.2,10.07-4.77,10.07-4.77,0,.48,0,1.73,0,2.64v.89c0,1.37,0,2.74,0,4.12-.02,3.31-.1,5.86-.25,8.25-.28,4.3-.63,9.65-4.19,12.76-1.59,1.39-3.58,2-5.74,1.77-2.57-.27-5.07-1.73-6.68-3.89-.38-.51-.72-1.07-1.01-1.65-.69-1.38-1.1-2.92-1.31-4.84-.16-1.52-.25-2.46-.27-3.07h-14.44c0,7.65,2,13.81,5.78,17.82,4.38,4.65,10.12,6.82,18.07,6.82.22,0,.43,0,.61.02h0c9.35-.7,16.27-4.25,20.04-10.25ZM902.71,1292.09l-.03,7.98c0,.2,0,.48-.12.77-.13.32-.36.54-.5.67-2.31,2.15-4.84,3.54-7.34,4-.54.1-1.08.15-1.62.15-2.37,0-4.68-.94-6.3-2.62-.82-.86-1.49-1.87-2.01-3.03-1.26-2.82-1.47-6.02-1.5-9.07-.03-3.07.07-6.68,1.03-10.14.87-3.11,2.36-5.37,4.32-6.55,1.36-.82,3.09-1.2,4.99-1.07,1.88.12,3.53.7,4.79,1.67,1.91,1.47,3.17,4.01,3.76,7.56.53,3.22.52,6.51.51,9.69Z"/></svg>